<svg width="24" height="21" viewBox="0 0 24 21" fill="none" xmlns="http://www.w3.org/2000/svg">
<path fill-rule="evenodd" clip-rule="evenodd" d="M11.3101 0.775946C11.4961 0.598657 11.7432 0.499756 12.0001 0.499756C12.2571 0.499756 12.5042 0.598657 12.6901 0.775946L20.6901 8.39495L23.1901 10.7749C23.3824 10.9579 23.4941 11.2098 23.5007 11.4752C23.5073 11.7406 23.4081 11.9977 23.2251 12.1899C23.0421 12.3822 22.7903 12.4939 22.5249 12.5005C22.2595 12.5071 22.0024 12.4079 21.8101 12.2249L21.0001 11.4519V18.9999C21.0001 19.5304 20.7894 20.0391 20.4144 20.4142C20.0393 20.7892 19.5306 20.9999 19.0001 20.9999H5.00014C4.46971 20.9999 3.961 20.7892 3.58592 20.4142C3.21085 20.0391 3.00014 19.5304 3.00014 18.9999V11.4519L2.19014 12.2239C1.99812 12.4069 1.74127 12.5062 1.4761 12.4998C1.21092 12.4934 0.959138 12.382 0.776138 12.1899C0.593139 11.9979 0.493913 11.7411 0.500289 11.4759C0.506666 11.2107 0.618122 10.9589 0.810138 10.7759L3.31014 8.39495L11.3101 0.774946V0.775946ZM5.00014 9.54795V18.9999H9.00014V13.9999C9.00014 13.2043 9.31621 12.4412 9.87882 11.8786C10.4414 11.316 11.2045 10.9999 12.0001 10.9999C12.7958 10.9999 13.5589 11.316 14.1215 11.8786C14.6841 12.4412 15.0001 13.2043 15.0001 13.9999V18.9999H19.0001V9.54795L12.0001 2.87995L5.00014 9.54695V9.54795ZM13.0001 18.9999V13.9999C13.0001 13.7347 12.8948 13.4804 12.7072 13.2928C12.5197 13.1053 12.2654 12.9999 12.0001 12.9999C11.7349 12.9999 11.4806 13.1053 11.293 13.2928C11.1055 13.4804 11.0001 13.7347 11.0001 13.9999V18.9999H13.0001Z" fill="#414144"/>
</svg>
